<?xml version="1.0" encoding="utf-8"?>
<!-- Generator: Adobe Illustrator 21.0.0, SVG Export Plug-In . SVG Version: 6.00 Build 0)  -->
<svg version="1.1" id="Livello_1" xmlns="http://www.w3.org/2000/svg" xmlns:xlink="http://www.w3.org/1999/xlink" x="0px" y="0px"
	 viewBox="0 0 141.7 141.7" style="enable-background:new 0 0 141.7 141.7;" xml:space="preserve">
<style type="text/css">
	.st0{fill:#3EB263;}
</style>
<g>
	<path class="st0" d="M70.9,5.9C37.4,5.9,9.7,31.4,6.2,64c0,0,0,0.1,0,0.1c-0.1,0.5-0.1,1-0.1,1.6c0,0.6-0.1,1.2-0.1,1.8
		c-0.1,1.1-0.1,2.2-0.1,3.4c0,35.8,29.2,65,65,65c35.8,0,65-29.2,65-65C135.8,35,106.7,5.9,70.9,5.9z M125.8,75.4
		c-1.4,27-20.1,45.8-46.3,49.8c-2.8,0.4-5.7,0.7-8.6,0.7c-2.9,0-5.8-0.2-8.6-0.7c-26.2-4-45-24.4-46.4-51.4c0-1-0.1-1.9-0.1-2.9
		c0-0.9,0-1.9,0.1-2.8c0-0.6,0.1-1.2,0.1-1.8c0-0.2,0-0.4,0-0.6C18.5,41,38.6,36.8,70.7,36.8c38.9,0,53,9.2,55,30.9
		c0,0.2,0,0.5,0.1,0.8c0,0.5,0.1,0.9,0.1,1.4c0,0.9,0.1,1.7,0.1,2.6C125.9,73.5,125.9,74.4,125.8,75.4z"/>
	<g>
		<path class="st0" d="M49.7,44c0.7-0.6,0.1-1.6-0.7-1.4c-17.4,4-23.6,10.3-25.4,24c0,0.2,0,0.4,0,0.5c0,0.5-0.1,1.1-0.1,1.7
			c0,0.8-0.1,1.7-0.1,2.5c0,0.9,0,1.7,0.1,2.6c0.5,10.3,7,23.4,17.4,33.6c0.7,0.7,1.8-0.1,1.3-1C36.2,95.2,24.4,65.8,49.7,44z"/>
	</g>
</g>
</svg>
