<?xml version="1.0" encoding="utf-8"?>
<!-- Generator: Adobe Illustrator 21.0.0, SVG Export Plug-In . SVG Version: 6.00 Build 0)  -->
<svg version="1.1" id="Livello_1" xmlns="http://www.w3.org/2000/svg" xmlns:xlink="http://www.w3.org/1999/xlink" x="0px" y="0px"
	 viewBox="0 0 1391 336" style="enable-background:new 0 0 1391 336;" xml:space="preserve">
<style type="text/css">
	.st0{fill:#FFFFFF;}
</style>
<g>
	<path class="st0" d="M112.3,214.9c0-9.4,1.8-18.3,5.5-26.8c3.7-8.5,8.6-15.9,14.8-22.2c6.2-6.3,13.5-11.4,21.7-15.2
		c8.3-3.8,17-5.7,26.2-5.7c6.1,0,11.6,0.8,16.5,2.3c4.9,1.5,9.1,3.3,12.7,5.4c3.6,2,6.4,4.1,8.4,6.3v0c1.6,1.6,4.3,0.7,4.5-1.6
		l0.5-5.8c0.1-1.8,1.6-3.2,3.4-3.2h21.8c1.9,0,3.4,1.5,3.4,3.4v123.2c0,1.9-1.5,3.4-3.4,3.4h-22.8c-1.9,0-3.4-1.5-3.4-3.4V270
		c0-1,0-2,0.2-2.9c0.1-0.9,0.2-1.6,0.2-2c-0.8,1-2.2,2.5-4.3,4.4c-2,1.9-4.8,3.8-8.3,5.7c-3.5,1.8-7.6,3.4-12.4,4.7
		c-4.8,1.3-10.4,2-16.7,2c-10,0-19.2-1.8-27.5-5.5c-8.4-3.7-15.6-8.6-21.7-14.7c-6.1-6.1-10.9-13.2-14.2-21.3
		C113.9,232.4,112.3,223.9,112.3,214.9z M141.9,213.1c0,5.7,1,11,2.9,15.9c1.9,4.9,4.7,9.1,8.3,12.7c3.6,3.6,7.8,6.4,12.7,8.4
		c4.9,2,10.3,3.1,16.2,3.1c5.9,0,11.3-1,16.2-3.1c4.9-2,9.1-4.9,12.7-8.6c3.6-3.7,6.3-8,8.3-12.9c1.9-4.9,2.9-10.1,2.9-15.6
		s-1-10.7-2.9-15.5c-1.9-4.8-4.7-8.9-8.3-12.4c-3.6-3.5-7.8-6.2-12.7-8.3c-4.9-2-10.3-3.1-16.2-3.1c-5.9,0-11.3,1-16.2,2.9
		c-4.9,1.9-9.1,4.7-12.7,8.3c-3.6,3.6-6.3,7.8-8.3,12.5C142.9,202.4,141.9,207.6,141.9,213.1z"/>
	<path class="st0" d="M371.3,247.2c2.2-1.4,5.1-0.8,6.7,1.2c2,2.5,3.9,4.9,5.8,7.3c1.8,2.2,3.6,4.4,5.4,6.7c1.9,2.3,1.5,5.8-1,7.5
		c-4.7,3.2-9.9,5.8-15.4,7.9c-7.3,2.8-15.2,4.1-23.6,4.1c-9.6,0-18.6-1.8-27.1-5.4c-8.5-3.6-15.8-8.5-22-14.7
		c-6.2-6.2-11.2-13.5-14.8-21.9c-3.7-8.4-5.5-17.2-5.5-26.6c0-9.4,1.8-18.2,5.5-26.5c3.7-8.3,8.6-15.5,14.8-21.7
		c6.2-6.2,13.6-11.1,22-14.7c8.5-3.6,17.5-5.4,27.1-5.4c8.6,0,16.6,1.4,24,4.1c5.6,2.1,10.8,4.7,15.6,7.8c2.6,1.7,3,5.3,1,7.6
		l-12,13.9c-1.7,2-4.5,2.3-6.7,1c-6.3-3.8-13.7-5.7-22-5.7c-5.9,0-11.3,1-16.2,3.1c-4.9,2-9.1,4.8-12.7,8.3
		c-3.6,3.5-6.3,7.6-8.3,12.4c-1.9,4.8-2.9,10.1-2.9,15.8c0,5.5,1,10.7,2.9,15.5c1.9,4.8,4.7,9,8.3,12.7c3.6,3.7,7.8,6.5,12.7,8.6
		c4.9,2,10.3,3.1,16.2,3.1C357.7,253.2,365,251.2,371.3,247.2z"/>
	<path class="st0" d="M521,259.5c2.3,2.2,2,6-0.6,7.9c-5.3,3.9-11.4,7.1-18.2,9.6c-9,3.3-18.2,4.9-27.5,4.9
		c-9.6,0-18.6-1.8-27.1-5.4c-8.5-3.6-15.8-8.5-22-14.7c-6.2-6.2-11.2-13.5-14.8-21.7c-3.7-8.3-5.5-17.1-5.5-26.5
		c0-9.4,1.8-18.2,5.5-26.5c3.7-8.3,8.6-15.5,14.8-21.7c6.2-6.2,13.5-11.1,21.7-14.7c8.3-3.6,17-5.4,26.2-5.4
		c14.7,0,27.6,4.4,38.7,13.3c9.8,7.8,17.1,17.9,22,30.1c1.1,2.7-0.3,5.7-3,6.7c-5,1.9-10.5,4-16.5,6.3c-8.1,3.2-16.5,6.5-25.3,9.9
		c-8.8,3.5-17.6,7-26.3,10.6c-6.5,2.6-12.6,5.1-18.3,7.3c-3.2,1.2-4.3,5.2-2.2,7.9c3,3.8,6.5,7.1,10.7,9.7
		c6.1,3.9,13.1,5.8,20.8,5.8c5.3,0,10.7-1,16.1-2.9c3.8-1.4,7.2-3.1,10.1-5.1c2-1.4,4.8-1.2,6.5,0.5L521,259.5z M493,189.6
		c3.6-1.4,4.5-6.1,1.6-8.6c-1.8-1.5-3.8-2.8-6.1-3.8c-4.9-2.1-9.7-3.2-14.4-3.2c-5.5,0-10.7,1.1-15.6,3.2c-4.9,2.1-9.1,5-12.5,8.6
		c-3.5,3.6-6.2,7.7-8.3,12.2c-2,4.6-3.1,9.3-3.1,14.2v1.2c5.1-2,10.6-4.2,16.4-6.6c5.8-2.3,11.6-4.7,17.4-7.2
		c5.8-2.4,11.4-4.7,16.7-6.9C487.8,191.6,490.5,190.5,493,189.6z"/>
	<path class="st0" d="M632.1,178.9c-0.4,2.4-2.4,4.1-4.8,4.3c-4.3,0.3-8.4,0.9-12.3,2c-5.2,1.4-9.8,3.6-13.8,6.6
		c-4,3-7.2,6.6-9.6,11c-2.4,4.4-3.7,9.5-3.7,15.5v55.1c0,2.8-2.3,5.2-5.2,5.2h-19.1c-2.8,0-5.2-2.3-5.2-5.2V153.7
		c0-2.8,2.3-5.2,5.2-5.2l15.7,0c2.7,0,5,2.1,5.1,4.8c0.3,5.2,0.7,9.5,1.1,13.1c0,0.2,0,0.4,0.1,0.6c0.5,4.5,6.1,6.3,9,2.8
		c1-1.1,2-2.2,3-3.3c4.5-4.5,9.1-8.3,13.9-11.5c4.8-3.2,9.5-5.6,14.2-7.3c1.5-0.6,2.9-1,4.3-1.4c3.6-1,7.1,2.1,6.5,5.8L632.1,178.9z
		"/>
	<path class="st0" d="M797,214c0,9.8-1.6,18.8-4.9,27.1c-3.3,8.3-7.9,15.5-13.9,21.6c-6,6.1-13.2,10.9-21.6,14.2
		c-8.4,3.4-17.6,5-27.5,5c-10,0-18.8-1.9-26.5-5.7c-7.7-3.8-12.9-7.8-15.8-12.1c0,0.8,0,1.6,0.2,2.3c0.1,0.7,0.2,1.6,0.2,2.6v5.8
		c0,2-1.6,3.7-3.7,3.7h-22c-2,0-3.7-1.6-3.7-3.7V43.2c0-2,1.6-3.7,3.7-3.7h22c2,0,3.7,1.6,3.7,3.7l0,112.6c0,3.2,3.8,4.9,6.2,2.7
		c0,0,0.1,0,0.1-0.1c2.5-2.3,5.7-4.5,9.3-6.4c3.7-1.9,7.8-3.6,12.4-4.9c4.6-1.3,9.6-2,15.2-2c10,0,19.1,1.6,27.2,4.7
		c8.2,3.2,15.2,7.8,21,13.8c5.8,6,10.4,13.3,13.6,21.7C795.3,193.8,797,203.4,797,214z M765.1,213.4c0-11.4-3.3-20.9-9.9-28.3
		c-6.6-7.4-15.9-11.2-27.7-11.2c-5.9,0-11.3,1-16.2,2.9c-4.9,1.9-9.1,4.7-12.7,8.3c-3.6,3.6-6.4,7.8-8.4,12.5
		c-2,4.8-3.1,9.9-3.1,15.5c0,5.7,1,11,3.1,15.9c2,4.9,4.8,9.1,8.4,12.7c3.6,3.6,7.8,6.4,12.7,8.4c4.9,2,10.3,3.1,16.2,3.1
		c5.9,0,11.2-1,15.9-3.1c4.7-2,8.6-4.9,11.8-8.6c3.2-3.7,5.6-7.9,7.3-12.7C764.3,224,765.1,218.9,765.1,213.4z"/>
	<path class="st0" d="M817.2,214.9c0-9.4,1.8-18.3,5.5-26.8c3.7-8.5,8.6-15.9,14.8-22.2c6.2-6.3,13.5-11.4,21.7-15.2
		c8.3-3.8,17-5.7,26.2-5.7c6.1,0,11.6,0.8,16.5,2.3c4.9,1.5,9.1,3.3,12.7,5.4c3.6,2,6.4,4.1,8.4,6.3l0,0c1.6,1.6,4.3,0.7,4.5-1.6
		l0.5-5.8c0.1-1.8,1.6-3.2,3.4-3.2h21.8c1.9,0,3.4,1.5,3.4,3.4v123.2c0,1.9-1.5,3.4-3.4,3.4h-22.8c-1.9,0-3.4-1.5-3.4-3.4V270
		c0-1,0-2,0.2-2.9c0.1-0.9,0.2-1.6,0.2-2c-0.8,1-2.2,2.5-4.3,4.4c-2,1.9-4.8,3.8-8.3,5.7c-3.5,1.8-7.6,3.4-12.4,4.7
		c-4.8,1.3-10.4,2-16.7,2c-10,0-19.2-1.8-27.5-5.5c-8.4-3.7-15.6-8.6-21.7-14.7c-6.1-6.1-10.9-13.2-14.2-21.3
		C818.8,232.4,817.2,223.9,817.2,214.9z M846.8,213.1c0,5.7,1,11,2.9,15.9c1.9,4.9,4.7,9.1,8.3,12.7c3.6,3.6,7.8,6.4,12.7,8.4
		c4.9,2,10.3,3.1,16.2,3.1c5.9,0,11.3-1,16.2-3.1c4.9-2,9.1-4.9,12.7-8.6c3.6-3.7,6.3-8,8.3-12.9c1.9-4.9,2.9-10.1,2.9-15.6
		s-1-10.7-2.9-15.5c-1.9-4.8-4.7-8.9-8.3-12.4c-3.6-3.5-7.8-6.2-12.7-8.3c-4.9-2-10.3-3.1-16.2-3.1c-5.9,0-11.3,1-16.2,2.9
		c-4.9,1.9-9.1,4.7-12.7,8.3c-3.6,3.6-6.3,7.8-8.3,12.5C847.8,202.4,846.8,207.6,846.8,213.1z"/>
	<path class="st0" d="M990.7,259.6c0-5.3,2-9.8,6-13.5c4-3.7,8.3-5.5,13-5.5c4.3,0,8.4,1.8,12.4,5.5c4,3.7,6,8.2,6,13.5
		c0,5.9-2,10.6-6,13.9c-4,3.4-8.1,5-12.4,5c-4.7,0-9-1.7-13-5C992.7,270.2,990.7,265.5,990.7,259.6z"/>
	<path class="st0" d="M1058.6,98c0-5.3,1.9-9.7,5.8-13.2c3.9-3.5,8.1-5.2,12.5-5.2c4.5,0,8.6,1.7,12.4,5.2c3.8,3.5,5.7,7.9,5.7,13.2
		c0,5.5-1.9,9.9-5.7,13.3c-3.8,3.4-7.9,5.1-12.4,5.1c-4.5,0-8.7-1.7-12.5-5.1C1060.6,107.9,1058.6,103.5,1058.6,98z M1086.2,278.6
		h-19.1c-2.8,0-5.2-2.3-5.2-5.2V153.7c0-2.8,2.3-5.2,5.2-5.2h19.1c2.8,0,5.2,2.3,5.2,5.2v119.8
		C1091.4,276.3,1089.1,278.6,1086.2,278.6z"/>
	<g>
		<path class="st0" d="M1234.8,73.1c-57.6,0-105.1,43.8-111,99.9c0,0.1,0,0.1,0,0.2c-0.1,0.9-0.1,1.8-0.2,2.7
			c-0.1,1-0.2,2.1-0.2,3.2c-0.1,1.9-0.1,3.8-0.1,5.8c0,61.6,50.1,111.7,111.7,111.7c61.6,0,111.7-50.1,111.7-111.7
			C1346.5,123.2,1296.4,73.1,1234.8,73.1z M1322,192.6c-2.4,46.4-27.3,71.4-72.3,78.3c-4.8,0.7-9.8,1.1-14.8,1.1
			c-5,0-10-0.4-14.8-1.1c-45.1-6.9-70-34.7-72.4-81.1c-0.1-1.7-0.1-3.3-0.1-5c0-1.6,0-3.2,0.1-4.8c0.1-1.1,0.1-2.1,0.2-3.2
			c0-0.3,0-0.7,0.1-1c4.3-42.3,31.4-42.2,86.6-42.2c66.8,0,83.7,8.5,87.2,45.8c0,0.4,0.1,0.9,0.1,1.3c0.1,0.8,0.1,1.6,0.2,2.4
			c0.1,1.5,0.1,3,0.1,4.5C1322.1,189.3,1322,190.9,1322,192.6z"/>
	</g>
	<g>
		<path class="st0" d="M1205.2,150.2c1-0.9,0.2-2.9-1.1-2.6c-30.1,6.8-36.1,14.6-38.9,35.5c0,0.3,0,0.6-0.1,0.8
			c-0.1,0.8-0.1,1.7-0.2,2.5c-0.1,1.3-0.1,2.6-0.1,3.8c0,1.3,0,2.7,0.1,4c0.8,15.7,10.9,35.5,28.4,49.8c1.1,0.9,2.7-0.2,2-1.5
			C1186.2,225.5,1166.3,183.7,1205.2,150.2z"/>
	</g>
	<g>
		<path class="st0" d="M50.5,39.8h18.1c3.3,0,6,2.7,6,6v190.3c0,5.7,1,9.6,3.1,11.7c1.2,1.2,3.2,2.2,5.7,2.9c3.5,1,6,4.1,6,7.8v13.3
			c0,4.7-4,8.4-8.6,8c-3.6-0.3-7-0.7-10.1-1.3c-5.6-1.1-10.3-3.1-14.2-6.2c-3.8-3.1-6.8-7.3-8.9-12.9c-2.1-5.5-3.1-12.6-3.1-21.3
			V45.8C44.5,42.5,47.2,39.8,50.5,39.8z"/>
	</g>
</g>
</svg>
