<?xml version="1.0" encoding="utf-8"?>
<!-- Generator: Adobe Illustrator 16.0.0, SVG Export Plug-In . SVG Version: 6.00 Build 0)  -->
<!DOCTYPE svg PUBLIC "-//W3C//DTD SVG 1.1//EN" "http://www.w3.org/Graphics/SVG/1.1/DTD/svg11.dtd">
<svg version="1.1" id="Layer_1" xmlns="http://www.w3.org/2000/svg" xmlns:xlink="http://www.w3.org/1999/xlink" x="0px" y="0px"
	 width="595.28px" height="841.89px" viewBox="0 0 595.28 841.89" enable-background="new 0 0 595.28 841.89" xml:space="preserve">
<path fill="#44AF64" d="M576.843,632.743L426.903,482.815c-1.876-1.876-3.887-3.536-5.992-5.008c0.132-0.202,0.27-0.4,0.4-0.603
	c56.092-86.993,46.061-204.26-30.112-280.427c-87.734-87.738-229.978-87.738-317.701-0.012
	C-14.23,284.492-14.23,426.735,73.51,514.471c76.167,76.172,193.434,86.203,280.43,30.111c0.2-0.129,0.396-0.266,0.596-0.396
	c1.472,2.105,3.133,4.117,5.009,5.993l149.934,149.928c17.385,17.392,45.848,17.392,63.238,0l4.126-4.12
	C594.233,678.597,594.233,650.134,576.843,632.743z M104.857,483.123c-70.421-70.421-70.427-184.585-0.012-255.006
	c70.409-70.409,184.585-70.409,255.006,0.012c70.409,70.409,70.409,184.585,0,254.995
	C289.431,553.544,175.267,553.532,104.857,483.123z"/>
</svg>
